<svg xmlns="http://www.w3.org/2000/svg" xmlns:xlink="http://www.w3.org/1999/xlink" x="0" y="0" version="1.1" viewBox="0 0 750 500" style="enable-background:new 0 0 750 500" xml:space="preserve"><g id="Background_Complete"><g><path style="fill:none" d="M406.3,198.558c15.49-5.339,28.811-15.777,44.257-21.242c25.84-9.141,55.094-3.225,79.289,9.653 c16.84,8.963,31.694,21.01,45.833,33.908c-23.297-25.353-52.716-45.879-83.511-50.653c-61.536-9.54-90.252,48.06-142.366,24.446 C367.097,203.441,387.967,204.878,406.3,198.558z"/><path style="fill:none" d="M209.876,147.609c1.135-0.621,2.283-1.228,3.443-1.82c-20.191,6.88-38.05,22.244-52.249,42.599 C174.54,171.841,191.15,157.844,209.876,147.609z"/><path style="fill:none" d="M622.426,300.366c-0.329-1.25-0.694-2.52-1.081-3.802c0.136,0.866,0.282,1.73,0.438,2.591 C622.058,299.465,622.277,299.863,622.426,300.366z"/><path style="fill:none" d="M165.503,409.75c0,0.001,0.001,0.001,0.001,0.002c4.53,4.668,13.472,9.015,25.8,12.873 C181.39,418.709,172.853,414.363,165.503,409.75z"/><path style="fill:none" d="M127.249,320.601c0.057,0.627,0.122,1.252,0.185,1.878c0.067-0.013,0.136-0.024,0.203-0.037 C127.5,321.838,127.37,321.225,127.249,320.601z"/><path style="fill:#f5f5f5" d="M160.947,327.072c-2.681-3.237-5.362-6.475-8.043-9.712c3.481,1.961,6.962,3.922,10.443,5.882 c-1.992-4.401-3.984-8.803-5.977-13.204c5,2.492,9.999,4.983,14.999,7.475c-2.913-4.468-5.827-8.936-8.74-13.404 c5.605,3.149,11.21,6.297,16.815,9.446c1.337-4.156,2.673-8.312,4.01-12.468c2.506,2.225,5.012,4.45,7.517,6.675 c-0.107-4.431,1.413-8.883,4.208-12.322c2.635,3.792,5.27,7.584,7.905,11.376c0.585-3.214,1.17-6.427,1.755-9.641 c-0.02-1.601,0.248-3.212,0.871-4.788c-0.29,1.596-0.581,3.192-0.871,4.788c0.095,7.571,6.777,14.926,14.437,17.262 c9.281,2.83,19.238,0.569,28.78-1.19c34.239-6.311,69.315-5.903,104.128-5.474c40.252,0.496,80.504,0.992,120.757,1.488 c-2.449-6.73-2.94-14.161-1.395-21.155c4.914,5.762,9.827,11.524,14.741,17.286c-0.783-4.92-1.567-9.839-2.35-14.759 c3.836,4.17,7.672,8.341,11.508,12.511c-0.152-4.4-0.305-8.8-0.457-13.201c4.477,5.472,8.954,10.944,13.431,16.416 c-1-5.299-1.999-10.598-2.999-15.898c6.385,8.5,16.876,13.144,27.395,14.681c10.519,1.537,21.223,0.314,31.783-0.909 c-1.785-8.017-3.571-16.033-5.356-24.05c5.039,7.648,10.078,15.296,15.116,22.943c-1.174-7.324-2.348-14.647-3.522-21.971 c5.115,6.856,10.23,13.711,15.344,20.567c-0.688-6.421-1.375-12.841-2.062-19.262c1.558,7.326,4.746,14.302,9.267,20.273 c1.075-6.323,2.15-12.647,3.226-18.97c0.471,6.857,0.942,13.714,1.413,20.571c2.502-7.574,5.004-15.148,7.506-22.721 c-0.407,6.946-0.814,13.893-1.221,20.839c5.185-0.632,13.732-6.387,16.475-3.297c-0.156-0.861-0.302-1.724-0.438-2.591 c-7.058-23.379-23.617-51.693-45.665-75.687c-14.139-12.898-28.993-24.945-45.833-33.908 c-24.195-12.878-53.449-18.794-79.289-9.653c-15.446,5.464-28.768,15.902-44.257,21.242c-18.333,6.319-39.203,4.883-56.498-3.888 c-52.114-23.614-56.796-76.034-136.484-48.881c0,0,0,0,0,0c-1.159,0.592-2.307,1.199-3.443,1.82 c-18.726,10.236-35.335,24.232-48.806,40.78c-24.503,35.129-38.078,85.143-33.821,132.213c0.122,0.624,0.251,1.237,0.388,1.841 C136.575,320.752,151.971,324.944,160.947,327.072z"/><path style="fill:#e0e0e0" d="M624.316,309.215c-3.417,0.351-470.646,48.363-490.028,27.579 c-3.165-3.395-5.295-8.385-6.652-14.351c-0.067,0.013-0.136,0.024-0.203,0.037c3.286,32.618,15.194,63.701,38.068,87.27 c7.35,4.613,15.887,8.96,25.802,12.875C296.39,455.515,648.22,452.817,624.316,309.215z"/><path style="fill:#e0e0e0" d="M624.278,308.967c-0.477-2.815-1.083-5.678-1.852-8.601c-0.149-0.503-0.367-0.901-0.643-1.211 C622.387,302.487,623.163,305.774,624.278,308.967z"/><path style="fill:#e0e0e0" d="M205.839,297.173c0.29-1.596,0.581-3.192,0.871-4.788 C206.087,293.96,205.819,295.571,205.839,297.173z"/><path style="fill:#e0e0e0" d="M605.308,302.452c0.407-6.946,0.814-13.893,1.221-20.839c-2.502,7.574-5.004,15.148-7.506,22.721 c-0.471-6.857-0.942-13.714-1.413-20.571c-1.075,6.323-2.15,12.647-3.226,18.97c-4.521-5.972-7.709-12.947-9.267-20.273 c0.688,6.421,1.375,12.841,2.062,19.262c-5.115-6.856-10.23-13.711-15.344-20.567c1.174,7.323,2.348,14.647,3.522,21.971 c-5.039-7.648-10.078-15.296-15.116-22.943c1.785,8.017,3.571,16.033,5.356,24.05c-10.56,1.224-21.264,2.446-31.783,0.909 c-10.519-1.537-21.01-6.182-27.395-14.681c1,5.299,1.999,10.598,2.999,15.898c-4.477-5.472-8.954-10.944-13.431-16.416 c0.152,4.4,0.305,8.8,0.457,13.201c-3.836-4.17-7.672-8.341-11.508-12.511c0.783,4.92,1.567,9.839,2.35,14.759 c-4.914-5.762-9.827-11.524-14.741-17.286c-1.544,6.994-1.054,14.424,1.395,21.155c-40.252-0.496-80.504-0.992-120.757-1.488 c-34.813-0.429-69.889-0.837-104.128,5.474c-9.542,1.759-19.499,4.02-28.78,1.19c-7.661-2.336-14.343-9.691-14.437-17.262 c-0.585,3.214-1.17,6.428-1.755,9.641c-2.635-3.792-5.27-7.584-7.905-11.376c-2.795,3.44-4.315,7.892-4.208,12.322 c-2.506-2.225-5.011-4.45-7.517-6.675c-1.337,4.156-2.674,8.312-4.01,12.468c-5.605-3.149-11.21-6.297-16.815-9.446 c2.913,4.468,5.827,8.936,8.74,13.404c-4.999-2.492-9.999-4.983-14.999-7.475c1.992,4.401,3.984,8.803,5.977,13.204 c-3.481-1.961-6.962-3.922-10.443-5.882c2.681,3.237,5.362,6.475,8.043,9.712c-8.976-2.128-24.371-6.32-33.31-4.629 c1.356,5.966,3.487,10.957,6.652,14.351c19.381,20.785,486.611-27.227,490.028-27.579c-0.014-0.083-0.025-0.165-0.039-0.247 c-1.115-3.193-1.891-6.48-2.495-9.812C619.04,296.065,610.493,301.82,605.308,302.452z"/></g><g><path style="fill:#ebebeb" d="M567.463,160.333c0,0-7.228-2.997-12.074,13.841c-4.846,16.838-6.095,26.25-6.095,26.25 s-1.443,3.611-4.055,1.939c-2.612-1.672-6.785-7.042-10.328-5.245c-3.673,1.864-4.115,6.452-2.139,12.686 c1.975,6.234,5.802,20.05,6.143,21.301c0.335,1.228-0.023,3.201-1.985,2.347c-1.962-0.854-14.071-10.022-18.078-4.015 c-4.006,6.007,4.35,22.469,5.229,24.286c0.879,1.817,0.662,2.708-0.156,3.358c-0.818,0.65-4.598-2.815-8.149-5.282 c-3.551-2.466-8.101-4.704-10.122-1.044c-2.021,3.659-0.333,16.897,16.22,35.728l8.241,8.224l11.34-2.854 c23.897-7.587,32.175-18.054,32.332-22.232s-4.894-4.609-9.209-4.329c-4.314,0.28-9.34,1.297-9.706,0.318 c-0.365-0.979-0.091-1.854,1.6-2.957c1.691-1.103,17.344-10.89,17.013-18.103c-0.332-7.212-15.435-5.609-17.557-5.891 c-2.121-0.281-1.41-2.156-0.489-3.035c0.938-0.895,11.346-10.754,16.255-15.074c4.909-4.32,6.899-8.477,4.715-11.97 c-2.106-3.368-8.452-0.922-11.553-0.838c-3.1,0.084-2.473-3.753-2.473-3.753s3.787-8.706,8.327-25.63 c4.539-16.924-3.399-18.077-3.399-18.077"/><g><path style="fill:#e0e0e0" d="M563.097,175.405c0.009,0.003-0.014,0.125-0.068,0.362c-0.064,0.265-0.147,0.611-0.253,1.048 c-0.243,0.952-0.586,2.298-1.025,4.015c-0.898,3.485-2.239,8.517-3.924,14.726c-3.365,12.421-8.171,29.536-13.551,48.417 c-5.351,18.88-10.194,35.969-13.711,48.377c-1.722,6.172-3.118,11.177-4.095,14.677c-0.482,1.705-0.859,3.042-1.126,3.987 c-0.128,0.431-0.229,0.772-0.307,1.033c-0.072,0.232-0.114,0.35-0.123,0.347c-0.009-0.002,0.014-0.125,0.068-0.362 c0.064-0.265,0.147-0.611,0.253-1.048c0.243-0.952,0.586-2.298,1.024-4.015c0.898-3.484,2.239-8.516,3.924-14.725 c3.365-12.421,8.172-29.538,13.554-48.425c5.349-18.874,10.192-35.96,13.708-48.369c1.722-6.171,3.119-11.177,4.095-14.678 c0.482-1.705,0.859-3.042,1.126-3.988c0.128-0.431,0.229-0.772,0.307-1.034C563.046,175.521,563.088,175.403,563.097,175.405z"/></g><g><path style="fill:#e0e0e0" d="M540.446,204.866c0.066-0.034,0.675,0.999,1.563,2.72c0.888,1.72,2.041,4.133,3.254,6.822 c1.154,2.612,2.198,4.974,3.052,6.906c0.775,1.768,1.271,2.855,1.2,2.892c-0.066,0.035-0.689-0.992-1.559-2.723 c-0.871-1.73-1.992-4.156-3.204-6.844c-1.172-2.602-2.232-4.955-3.1-6.881C540.858,205.997,540.375,204.902,540.446,204.866z"/></g><g><path style="fill:#e0e0e0" d="M550.604,224.206c-0.07-0.138,4.787-2.753,10.848-5.839c6.063-3.088,11.034-5.478,11.104-5.34 c0.07,0.138-4.786,2.752-10.849,5.84C555.646,221.953,550.674,224.344,550.604,224.206z"/></g><g><path style="fill:#e0e0e0" d="M541.033,252.834c-0.012-0.08,1.185-0.324,3.119-0.707c1.933-0.388,4.602-0.922,7.527-1.607 c2.928-0.678,5.56-1.374,7.464-1.883c1.904-0.509,3.086-0.82,3.111-0.743c0.023,0.071-1.117,0.516-2.999,1.124 c-1.881,0.608-4.508,1.368-7.449,2.049c-2.939,0.688-5.631,1.162-7.587,1.451C542.263,252.802,541.044,252.906,541.033,252.834z"/></g><g><path style="fill:#e0e0e0" d="M527.995,237.362c0.059-0.051,0.849,0.757,2.081,2.103c1.231,1.346,2.903,3.231,4.723,5.335 c1.82,2.105,3.445,4.031,4.599,5.444c1.154,1.412,1.839,2.311,1.781,2.362c-0.059,0.051-0.849-0.757-2.08-2.103 c-1.231-1.346-2.903-3.231-4.724-5.336c-1.82-2.104-3.444-4.03-4.599-5.443S527.936,237.413,527.995,237.362z"/></g><g><path style="fill:#e0e0e0" d="M516.335,261.561c0.058-0.051,1.067,0.987,2.651,2.706c1.584,1.72,3.742,4.121,6.101,6.795 c2.359,2.676,4.471,5.119,5.979,6.905c1.508,1.787,2.411,2.917,2.353,2.969c-0.058,0.051-1.067-0.987-2.65-2.706 c-1.584-1.72-3.743-4.121-6.102-6.796c-2.358-2.675-4.47-5.117-5.978-6.904C517.18,262.743,516.276,261.612,516.335,261.561z"/></g><g><path style="fill:#e0e0e0" d="M533.139,280.358c-0.016-0.08,1.492-0.438,3.928-1.009c2.435-0.575,5.797-1.369,9.487-2.338 c3.693-0.964,7.014-1.914,9.418-2.609c1.107-0.315,2.057-0.585,2.851-0.811c0.676-0.185,1.055-0.27,1.067-0.233 c0.012,0.037-0.345,0.192-1,0.441c-0.656,0.249-1.611,0.588-2.801,0.982c-2.377,0.793-5.691,1.806-9.394,2.772 c-3.7,0.972-7.086,1.707-9.546,2.184c-1.231,0.235-2.229,0.412-2.923,0.515C533.534,280.356,533.147,280.396,533.139,280.358z"/></g></g><g><g><g><path style="fill:#ebebeb" d="M470.76,272.106c17.967-12.552,22.043-35.852,21.332-56.795 c-0.118-3.496,0.266-7.182-1.397-10.249c-1.664-3.067-5.544-5.163-8.674-3.69c-2.596,1.222-3.728,4.242-5.18,6.74 c-1.932,3.323-4.811,6.073-8.199,7.831c-2.226,1.155-4.98,1.861-7.178,0.65c-3.015-1.664-3.371-5.83-3.349-9.308 c0.041-6.481,0.081-12.961,0.121-19.441c0.022-3.477,0.032-7.027-1.049-10.327c-1.081-3.3-3.471-6.366-6.778-7.292 c-3.308-0.926-7.398,0.981-8.097,4.384c-0.291,1.416-0.002,2.887-0.099,4.329c-0.097,1.443-0.769,3.04-2.14,3.443 c-1.388,0.408-2.779-0.578-3.818-1.596c-3.589-3.511-6.024-8.033-8.3-12.531c-2.276-4.498-4.485-9.102-7.741-12.931 c-3.256-3.829-7.761-6.863-12.74-7.146c-4.98-0.282-10.285,2.792-11.544,7.68c-1.262,4.902,1.598,9.876,4.71,13.843 c4.617,5.887,10.079,11.093,16.16,15.404c1.096,0.778,2.284,1.618,2.703,2.907c0.755,2.318-1.441,4.62-3.73,5.382 c-2.592,0.863-5.404,0.594-8.115,0.913c-2.711,0.319-5.648,1.515-6.674,4.078c-1.424,3.554,1.548,7.279,4.473,9.719 c5.856,4.886,12.543,8.745,19.677,11.359c2.558,0.936,5.249,1.757,7.312,3.554c2.063,1.798,3.307,4.922,2.061,7.371 c-1.247,2.452-4.445,3.236-7.125,2.738c-2.678-0.496-5.077-1.951-7.63-2.914c-4.778-1.804-10.949-1.474-14.01,2.655 c-2.011,2.714-2.189,6.494-1.171,9.73c1.017,3.236,3.08,6.023,5.271,8.593c7.659,8.985,17.462,16.219,28.548,20.062 C449.474,275.094,459.745,276.134,470.76,272.106"/></g></g><g><g><g><path style="fill:#e0e0e0" d="M400.953,151.088c-0.008,0.009,0.107,0.12,0.337,0.331c0.257,0.229,0.599,0.533,1.032,0.921 c0.911,0.805,2.253,1.993,3.941,3.569c3.379,3.141,8.125,7.868,13.28,14.335c2.587,3.223,5.276,6.871,8.091,10.84 c2.809,3.976,5.783,8.243,8.742,12.847c2.958,4.601,5.921,9.532,8.578,14.86c1.34,2.658,2.535,5.439,3.755,8.275 c1.213,2.835,2.443,5.712,3.689,8.623c4.941,11.66,9.286,22.931,12.391,33.46c3.123,10.52,4.981,20.269,5.795,28.53 c0.834,8.265,0.663,15.01,0.326,19.639c-0.182,2.315-0.359,4.111-0.522,5.323c-0.067,0.582-0.12,1.039-0.16,1.382 c-0.033,0.312-0.044,0.474-0.034,0.476c0.011,0.001-2.263,20.974,0.099-0.466c0.054-0.341,0.129-0.796,0.224-1.374 c0.204-1.208,0.423-3.003,0.643-5.321c0.413-4.633,0.654-11.402-0.125-19.703c-0.759-8.297-2.578-18.095-5.681-28.656 c-3.082-10.57-7.422-21.875-12.367-33.544c-1.247-2.912-2.479-5.79-3.693-8.626c-1.219-2.828-2.427-5.633-3.779-8.304 c-2.68-5.354-5.665-10.297-8.646-14.9c-2.979-4.607-5.974-8.869-8.803-12.834c-2.839-3.961-5.555-7.603-8.172-10.816 c-5.215-6.449-10.029-11.144-13.464-14.231c-1.715-1.55-3.085-2.709-4.024-3.482c-0.452-0.367-0.806-0.655-1.073-0.872 C401.088,151.174,400.96,151.079,400.953,151.088z"/></g></g></g><g><g><g><path style="fill:#e0e0e0" d="M445.332,208.478c0.043,0.007,0.161-0.521,0.34-1.483c0.183-0.961,0.401-2.359,0.645-4.091 c0.492-3.462,1.007-8.266,1.556-13.564c0.549-5.302,1.131-10.084,1.674-13.529c0.267-1.723,0.496-3.116,0.668-4.076 c0.166-0.962,0.237-1.499,0.194-1.51c-0.043-0.01-0.196,0.509-0.437,1.457c-0.247,0.947-0.545,2.331-0.869,4.05 c-0.66,3.437-1.316,8.232-1.865,13.538c-0.528,5.23-1.005,9.962-1.37,13.577c-0.175,1.632-0.324,3.008-0.443,4.112 C445.324,207.93,445.287,208.471,445.332,208.478z"/></g></g></g><g><g><g><path style="fill:#e0e0e0" d="M400.628,200.123c-0.001,0.044,0.635,0.118,1.783,0.214c1.147,0.102,2.808,0.241,4.853,0.478 c4.094,0.442,9.729,1.251,15.906,2.415c6.178,1.176,11.722,2.477,15.705,3.535c1.997,0.514,3.6,0.975,4.711,1.286 c1.11,0.316,1.73,0.47,1.745,0.428c0.014-0.043-0.582-0.278-1.671-0.669c-1.09-0.385-2.679-0.913-4.666-1.487 c-3.964-1.173-9.512-2.55-15.708-3.73c-6.196-1.166-11.862-1.907-15.98-2.233c-2.058-0.179-3.729-0.25-4.884-0.274 C401.269,200.068,400.63,200.078,400.628,200.123z"/></g></g></g><g><g><g><path style="fill:#e0e0e0" d="M464.805,258.154c0.02,0.009,0.125-0.178,0.306-0.545c0.207-0.437,0.459-0.971,0.764-1.617 c0.658-1.407,1.556-3.469,2.633-6.03c2.157-5.121,4.913-12.289,7.848-20.239c2.937-7.954,5.623-15.137,7.67-20.296 c1.003-2.508,1.829-4.57,2.442-6.104c0.262-0.666,0.478-1.214,0.655-1.665c0.143-0.383,0.209-0.588,0.189-0.599 c-0.021-0.008-0.125,0.18-0.307,0.547c-0.207,0.437-0.459,0.97-0.764,1.616c-0.658,1.407-1.556,3.469-2.633,6.03 c-2.157,5.121-4.913,12.289-7.849,20.243c-2.936,7.951-5.622,15.134-7.668,20.294c-1.004,2.507-1.829,4.57-2.442,6.102 c-0.262,0.665-0.478,1.215-0.655,1.665C464.85,257.94,464.784,258.145,464.805,258.154z"/></g></g></g><g><g><g><path style="fill:#e0e0e0" d="M405.4,239.008c-0.006,0.022,0.198,0.105,0.59,0.243c0.465,0.156,1.035,0.347,1.725,0.578 c1.593,0.517,3.745,1.214,6.361,2.061c5.371,1.742,12.761,4.233,20.924,6.996c8.165,2.766,15.586,5.191,20.995,6.821 c2.704,0.817,4.899,1.455,6.424,1.865c0.705,0.185,1.287,0.337,1.759,0.462c0.404,0.099,0.62,0.14,0.626,0.118 c0.006-0.022-0.198-0.105-0.59-0.244c-0.463-0.155-1.033-0.345-1.725-0.577c-1.593-0.517-3.743-1.213-6.36-2.062 c-5.371-1.741-12.763-4.233-20.928-6.997c-8.163-2.764-15.583-5.189-20.991-6.82c-2.704-0.817-4.899-1.455-6.425-1.865 c-0.705-0.185-1.286-0.338-1.759-0.462C405.622,239.028,405.407,238.987,405.4,239.008z"/></g></g></g></g><g><path style="fill:#f5f5f5" d="M442.487,100.528h147.695c0,0-13.061-23.768-51.078-20.308 c-36.308,3.304-38.155-11.693-56.616-13.539C464.026,64.835,448.641,78.989,442.487,100.528z"/></g><g><path style="fill:#f5f5f5" d="M188.527,72.786h85.133c0,0-7.528-13.7-29.442-11.706c-20.928,1.904-21.993-6.74-32.634-7.804 C200.942,52.213,192.074,60.371,188.527,72.786z"/></g><g><g><ellipse transform="matrix(0.7071 -0.7071 0.7071 0.7071 34.3689 285.501)" style="fill:#ebebeb" cx="361.815" cy="101.264" rx="17.74" ry="17.74"/></g><g><g><path style="fill:#ebebeb" d="M361.625,145.161c-0.256,0-0.464-5.98-0.464-13.355c0-7.378,0.207-13.356,0.464-13.356 c0.256,0,0.463,5.979,0.463,13.356C362.088,139.181,361.88,145.161,361.625,145.161z"/></g></g><g><g><path style="fill:#ebebeb" d="M405.29,100.263c0,0.256-6.223,0.464-13.897,0.464c-7.677,0-13.898-0.208-13.898-0.464 c0-0.256,6.221-0.463,13.898-0.463C399.067,99.799,405.29,100.007,405.29,100.263z"/></g></g><g><g><path style="fill:#ebebeb" d="M361.814,61.301c0.256,0,0.464,5.478,0.464,12.234c0,6.758-0.208,12.235-0.464,12.235 c-0.256,0-0.463-5.477-0.463-12.235C361.351,66.78,361.559,61.301,361.814,61.301z"/></g></g><g><g><path style="fill:#ebebeb" d="M349.516,101.926c0,0.256-6.607,0.463-14.756,0.463c-8.152,0-14.758-0.207-14.758-0.463 c0-0.256,6.606-0.463,14.758-0.463C342.909,101.462,349.516,101.67,349.516,101.926z"/></g></g><g><g><path style="fill:#ebebeb" d="M351.362,92.898c-0.181,0.181-3.891-3.236-8.286-7.63c-4.396-4.396-7.812-8.106-7.631-8.287 c0.181-0.181,3.89,3.235,8.287,7.631C348.126,89.007,351.542,92.717,351.362,92.898z"/></g></g><g><g><path style="fill:#ebebeb" d="M386.306,77.24c0.182,0.18-2.441,3.139-5.858,6.608c-3.419,3.471-6.337,6.138-6.52,5.958 c-0.182-0.179,2.44-3.138,5.859-6.609C383.205,79.729,386.124,77.061,386.306,77.24z"/></g></g><g><g><path style="fill:#ebebeb" d="M387.947,126.633c-0.181,0.181-3.785-3.129-8.048-7.393c-4.265-4.265-7.575-7.868-7.394-8.049 c0.181-0.181,3.784,3.129,8.049,7.394C384.818,122.848,388.128,126.452,387.947,126.633z"/></g></g><g><g><path style="fill:#ebebeb" d="M356.781,109.483c0.181,0.181-4.24,4.907-9.874,10.555c-5.636,5.65-10.35,10.082-10.532,9.901 c-0.181-0.181,4.239-4.906,9.875-10.556C351.884,113.735,356.599,109.302,356.781,109.483z"/></g></g></g></g><g id="Background_Simple" style="display:none"><path style="display:inline;fill:#ebebeb" d="M209.437,118.165c-22.439,51.576-11.871,110.774,19.662,157.35 c31.533,46.576,83.993,76.731,139.157,87.712c39.378,7.838,81.74,6.242,117.72-11.576c35.98-17.819,64.272-53.667,66.429-93.76 c0.815-15.144-2.397-31.224-12.503-42.531c-16.136-18.055-43.684-18.691-67.887-17.946c-24.204,0.745-51.733,0.18-67.948-17.804 c-12.459-13.819-14.294-33.863-20.859-51.273c-11.164-29.602-38.096-52.716-69.049-59.258c-10.471-2.213-21.541-3.008-32.465-2.218 c-31.538,2.282-59.339,21.961-72.082,50.9C209.554,117.897,209.496,118.031,209.437,118.165z"/></g><g id="Dog"><g><g><path style="fill:#e8505b" d="M245.437,361.854l-15.537-50.284c0,0,48.589-19.775,48.024-18.927 c-0.565,0.848-1.13,18.362-12.995,31.357c-11.865,12.995-11.3,24.294-6.215,27.402c0,0,7.399-2.644,12.201-0.949 c4.802,1.695,14.648,11.401,14.648,11.401H245.437z"/><path style="opacity:.3" d="M245.437,361.854l-15.537-50.284c0,0,48.589-19.775,48.024-18.927 c-0.565,0.848-1.13,18.362-12.995,31.357c-11.865,12.995-11.3,24.294-6.215,27.402c0,0,7.399-2.644,12.201-0.949 c4.802,1.695,14.648,11.401,14.648,11.401H245.437z"/></g><path style="fill:#e8505b" d="M486.574,331.618l-2.429-22.742l-7.892-7.892l-39.109-10.834c-1.695-0.469-3.494-0.396-5.144,0.211 l-16.628,6.113l-8.174-1.409c0,0-9.733-2.485-14.466-5.147c-1.836-1.033-3.834-1.751-5.882-2.241 c-43.602-10.44-75.802-36.634-75.802-36.634c-4.451-4.451-19.746-29.189-28.324-32.775c-8.469-3.541-26.705-2.023-26.705-2.023 l-3.909,1.254l1.806-0.862c-5.931-12.907-20.153-21.512-34.338-20.777c-14.185,0.735-27.442,10.764-32.007,24.215 c-2.193,6.46-2.509,13.428-3.774,20.121c-1.709,5.346-5.854,9.923-10.876,12.572c-6.32,3.334-13.805,3.925-20.882,2.939 c4.402,4.871,10.881,7.719,17.427,7.935c-6.592,5.09-14.702,8.66-22.719,11.074c8.694,6.152,21.19,6.331,30.056,0.429 c-2.702,2.356-5.405,4.711-8.107,7.067c8.433,1.292,16.576-4.583,21.003-11.876c4.427-7.293,6.075-15.871,8.457-24.063 c2.382-8.192,5.888-16.587,12.753-21.652c5.891-4.347,14.842-5.102,20.483-0.906c-5.667,1.343-17.342,5.517-21.904,17.618 c-3.329,8.831-1.217,15.927-8.813,41.328c-5.191,17.358-32.953,30.081-32.953,30.081s7.528,5.473,11.455,16.853 c6.019,17.444,9.803,43.936,13.721,48.099c0,0,33.5,5.105,39.569,1.868c0,0-14.455-13.708-26.299-13.708l-3.948-11.391 c-0.465-3.539-3.45-23.156-0.514-23.586c1.158-0.17,8.965,0.154,14.938-1.281c9.749-2.343,30.198-16.367,32.456-19.127 c0,0,21.397,2.07,32.791,25.25c7.384,15.023,40.596,38.825,67.202,37.06l2.977-0.203c1.758-0.12,3.213,1.348,3.077,3.105 l-0.595,7.674c15.121-0.862,24.031,12.457,24.031,12.457c31.841,0.908,46.405,3.44,78.246,4.348c0,0-0.013-3.758-5.063-8.095 c-8.604-7.389-31.231-6.819-31.231-6.819c-3.736-0.282-7.687-0.639-10.72-2.84c-3.712-2.694-6.791-7.727-8.262-12.133 l73.501,0.334l0.205,0.419l27.145-1.413c14.282-9.286,15.001-30.626,15.001-30.626L486.574,331.618z"/><g style="opacity:.3"><path d="M415.371,296.474c-6.963,10.565-11.943,24.258-11.628,36.908s3.012,24.548,5.649,36.924l-4.98-0.023 c-3.383-12.793-6.85-25.356-6.845-37.082c0.005-13.233,4.156-26.907,11.449-37.822"/></g><g><g><path style="fill:#263238" d="M222.838,382.081c-0.081,0.063-0.809-0.902-2.237-2.192c-1.42-1.292-3.621-2.836-6.353-3.903 c-2.738-1.055-5.404-1.4-7.324-1.403c-1.925-0.011-3.112,0.211-3.13,0.11c-0.007-0.038,0.283-0.12,0.819-0.235 c0.533-0.127,1.324-0.225,2.304-0.271c0.982-0.054,2.156,0.006,3.445,0.189c1.285,0.208,2.681,0.552,4.088,1.088 c1.4,0.553,2.663,1.24,3.751,1.953c1.075,0.735,1.982,1.482,2.671,2.184c0.693,0.695,1.21,1.301,1.519,1.754 C222.71,381.801,222.869,382.057,222.838,382.081z"/></g><g><path style="fill:#263238" d="M165.504,311.757c0.026-0.183,4.08,0.696,9.107,0.268c5.032-0.383,8.892-1.9,8.947-1.724 c0.025,0.062-0.904,0.52-2.496,1.034c-1.589,0.515-3.856,1.041-6.406,1.249c-2.55,0.203-4.871,0.047-6.522-0.207 C166.48,312.126,165.49,311.822,165.504,311.757z"/></g><g><path style="fill:#263238" d="M165.546,314.064c0.044-0.186,4.057,1.343,9.237,1.216c5.183-0.068,9.134-1.747,9.185-1.563 c0.025,0.058-0.919,0.552-2.558,1.069c-1.635,0.519-3.985,1.001-6.616,1.054c-2.63,0.046-4.997-0.347-6.65-0.804 C166.485,314.581,165.523,314.123,165.546,314.064z"/></g><g><path style="fill:#263238" d="M168.613,316.131c0.046-0.158,3.055,0.632,6.825,1.287c3.768,0.668,6.866,0.949,6.856,1.113 c-0.005,0.145-3.146,0.113-6.953-0.561C171.533,317.308,168.568,316.269,168.613,316.131z"/></g><g><path style="fill:#263238" d="M261.221,278.294c0.039-0.003,0.095,0.58,0.165,1.64c0.043,0.53,0.076,1.18,0.049,1.934 c-0.019,0.754,0.004,1.617-0.104,2.563c-0.073,0.949-0.165,1.987-0.365,3.09c-0.142,1.112-0.43,2.274-0.705,3.503 c-0.636,2.435-1.533,5.065-2.77,7.698c-1.268,2.62-2.748,4.972-4.241,6.999c-0.781,0.988-1.504,1.942-2.279,2.753 c-0.731,0.848-1.481,1.574-2.172,2.228c-0.667,0.679-1.352,1.204-1.926,1.693c-0.57,0.496-1.095,0.879-1.534,1.179 c-0.868,0.613-1.356,0.935-1.379,0.903c-0.074-0.098,1.88-1.413,4.563-4.06c0.667-0.665,1.392-1.399,2.099-2.251 c0.752-0.814,1.451-1.769,2.212-2.752c1.452-2.019,2.898-4.348,4.149-6.933c1.221-2.598,2.12-5.187,2.776-7.586 c0.285-1.21,0.587-2.354,0.747-3.451c0.217-1.086,0.331-2.111,0.428-3.048C261.306,280.645,261.098,278.299,261.221,278.294z"/></g></g><g style="opacity:.3"><path d="M297.983,235.002c-6.887,6.547-10.472,17.86-8.495,27.154c1.977,9.294,9.031,17.341,17.987,20.518 c6.853,2.431,14.962,2.364,20.319,7.28c3.08,2.826,4.7,6.863,7.096,10.288c6.156,8.798,18.039,13.139,28.417,10.38 c10.378-2.759,18.536-13.269,19.51-23.963c0,0-8.623-2.086-17.935-5.639c-9.567-3.65-19.863-8.789-22.544-10.223 c-5.289-2.83-24.19-14.451-27.423-16.821C309.973,250.351,297.983,235.002,297.983,235.002z"/></g><g><path style="fill:#263238" d="M214.674,252.238c-0.066-0.019,0.111-0.929,0.593-2.346c0.48-1.415,1.299-3.326,2.467-5.294 c1.172-1.966,2.46-3.598,3.475-4.695c1.015-1.1,1.729-1.69,1.778-1.641c0.131,0.121-2.479,2.737-4.77,6.623 C215.896,248.753,214.843,252.295,214.674,252.238z"/></g><g><path style="fill:#263238" d="M218.343,254.84c-0.066-0.015,0.059-0.939,0.487-2.382c0.425-1.441,1.196-3.389,2.359-5.376 c1.168-1.985,2.493-3.608,3.543-4.683c1.051-1.077,1.797-1.637,1.842-1.587c0.131,0.127-2.627,2.635-4.902,6.553 C219.362,251.261,218.517,254.892,218.343,254.84z"/></g><g><g><g><path style="fill:#263238" d="M354.19,385.015c-0.098-0.027,0.357-1.429,0.58-3.766c0.232-2.322,0.117-5.622-1.036-9.004 c-1.152-3.383-3.077-6.066-4.679-7.764c-1.603-1.714-2.819-2.547-2.758-2.628c0.02-0.029,0.343,0.149,0.889,0.53 c0.546,0.38,1.302,0.985,2.154,1.822c1.704,1.657,3.74,4.378,4.925,7.859c1.186,3.478,1.237,6.876,0.899,9.229 c-0.164,1.183-0.393,2.123-0.593,2.758C354.371,384.688,354.224,385.026,354.19,385.015z"/></g><g><path style="fill:#263238" d="M357.325,381.217c-0.156-0.049,0.295-1.797,0.573-3.99c0.289-2.192,0.298-3.996,0.461-4.004 c0.146-0.013,0.392,1.824,0.095,4.076C358.168,379.552,357.463,381.267,357.325,381.217z"/></g><g><path style="fill:#263238" d="M359.418,380.841c-0.136-0.101,0.862-1.467,1.396-3.43c0.561-1.956,0.417-3.641,0.585-3.657 c0.136-0.041,0.549,1.72-0.045,3.808C360.779,379.655,359.514,380.946,359.418,380.841z"/></g><g><path style="fill:#263238" d="M441.571,399.713c-0.094,0.027-0.286-0.794-1.012-1.888c-0.709-1.094-2.033-2.398-3.821-3.297 c-1.793-0.899-3.602-1.297-4.904-1.563c-1.308-0.259-2.13-0.396-2.12-0.478c0.008-0.072,0.842-0.074,2.184,0.087 c1.333,0.169,3.211,0.512,5.093,1.454c1.883,0.945,3.249,2.382,3.906,3.59C441.573,398.83,441.627,399.709,441.571,399.713z"/></g><g><path style="fill:#263238" d="M455.604,400.203c-0.094,0.054-0.751-1.177-2.173-2.886c-0.703-0.86-1.635-1.803-2.743-2.76 c-1.128-0.934-2.445-1.869-3.928-2.683c-1.493-0.795-2.997-1.385-4.396-1.819c-1.408-0.404-2.707-0.668-3.811-0.785 c-2.208-0.254-3.598-0.131-3.605-0.238c-0.003-0.039,0.34-0.091,0.969-0.152c0.314-0.036,0.7-0.065,1.149-0.054 c0.448,0.006,0.962-0.016,1.525,0.05c1.131,0.069,2.467,0.297,3.916,0.684c1.441,0.416,2.989,1.007,4.52,1.822 c1.52,0.834,2.862,1.807,3.998,2.784c1.116,1.001,2.039,1.994,2.715,2.903c0.363,0.435,0.626,0.877,0.877,1.249 c0.255,0.37,0.442,0.708,0.584,0.991C455.494,399.869,455.638,400.185,455.604,400.203z"/></g></g><g><path style="fill:#263238" d="M389.967,332.842c0.043-0.006,0.183,0.749,0.454,2.109c0.264,1.362,0.689,3.323,1.288,5.728 c1.201,4.806,3.171,11.384,6.047,18.376c1.448,3.518,2.595,6.943,3.801,9.987c1.205,3.042,2.439,5.725,3.74,7.822 c1.294,2.099,2.594,3.636,3.614,4.564c1,0.948,1.637,1.387,1.6,1.437c-0.011,0.016-0.174-0.086-0.475-0.295 c-0.291-0.221-0.769-0.495-1.271-0.981c-1.078-0.89-2.448-2.413-3.803-4.514c-1.363-2.099-2.646-4.793-3.884-7.842 c-1.238-3.05-2.402-6.472-3.839-9.964c-2.891-7.027-4.808-13.65-5.914-18.498c-0.552-2.425-0.918-4.406-1.117-5.783 c-0.112-0.686-0.166-1.225-0.208-1.588C389.959,333.037,389.948,332.845,389.967,332.842z"/></g></g><g style="opacity:.4"><path style="fill:#fff" d="M255.302,222.721c-0.082-0.342,1.84-1.212,5.185-1.731c1.668-0.269,3.686-0.386,5.927-0.318 c2.238,0.103,4.696,0.411,7.216,1.02c2.514,0.634,4.834,1.506,6.863,2.457c2.015,0.983,3.747,2.026,5.098,3.041 c2.719,2.017,4.014,3.682,3.783,3.946c-0.271,0.322-1.993-0.774-4.834-2.265c-1.415-0.756-3.142-1.559-5.087-2.357 c-1.96-0.766-4.146-1.507-6.495-2.1c-2.354-0.568-4.634-0.93-6.724-1.165c-2.092-0.2-3.994-0.292-5.599-0.282 C257.426,222.963,255.392,223.132,255.302,222.721z"/></g><g style="opacity:.4"><path style="fill:#fff" d="M188.319,234.52c-0.177,0.016-0.456-0.857-0.634-2.492c-0.184-1.633-0.169-4.039,0.348-6.958 c0.509-2.917,1.623-6.329,3.573-9.767c1.938-3.434,4.783-6.852,8.472-9.599c3.724-2.703,7.837-4.398,11.693-5.223 c3.864-0.835,7.453-0.88,10.389-0.495c2.941,0.378,5.242,1.081,6.744,1.744c1.507,0.659,2.257,1.185,2.188,1.349 c-0.163,0.446-3.509-0.901-9.092-1.117c-2.778-0.117-6.101,0.13-9.636,1.033c-3.53,0.895-7.247,2.518-10.627,4.968 c-3.345,2.494-6.003,5.556-7.911,8.658c-1.917,3.103-3.144,6.201-3.862,8.887C188.507,230.901,188.793,234.497,188.319,234.52z"/></g><g><g><path style="fill:#263238" d="M447.892,326.923c0.009,0.004-0.028,0.111-0.108,0.317c-0.095,0.233-0.217,0.533-0.37,0.909 c-0.354,0.828-0.851,1.99-1.483,3.47c-1.329,2.993-3.242,7.344-6.122,12.461c-2.888,5.076-6.819,11.035-12.82,16.053 c-1.453,1.281-3.152,2.459-5.12,3.14c-0.985,0.326-2.056,0.519-3.143,0.393c-1.079-0.148-2.145-0.657-2.891-1.495 c-0.758-0.831-1.188-1.894-1.444-2.957c-0.255-1.071-0.351-2.165-0.43-3.253c-0.156-2.17-0.314-4.372-0.473-6.601 c-0.629-8.917-1.227-17.41-1.772-25.14c-0.252-3.847-0.246-7.68,1.098-10.953c1.308-3.274,3.654-5.706,6.008-7.457 c2.384-1.755,4.847-2.859,7.043-3.641c2.204-0.778,4.158-1.261,5.757-1.621c1.601-0.358,2.851-0.593,3.699-0.75 c0.4-0.07,0.719-0.125,0.967-0.168c0.219-0.035,0.331-0.048,0.333-0.038c0.002,0.009-0.107,0.041-0.322,0.094 c-0.245,0.057-0.56,0.131-0.956,0.223c-0.877,0.203-2.107,0.488-3.672,0.851c-1.587,0.392-3.524,0.904-5.7,1.703 c-2.168,0.803-4.585,1.919-6.912,3.664c-2.299,1.74-4.568,4.136-5.813,7.311c-1.282,3.17-1.28,6.917-1.014,10.748 c0.558,7.729,1.172,16.219,1.816,25.134c0.159,2.228,0.316,4.431,0.471,6.601c0.153,2.124,0.374,4.366,1.723,5.879 c0.661,0.743,1.592,1.188,2.554,1.326c0.974,0.115,1.969-0.056,2.903-0.362c1.876-0.645,3.513-1.762,4.96-3.029 c5.947-4.934,9.887-10.822,12.806-15.853c2.911-5.07,4.878-9.39,6.267-12.353c0.673-1.46,1.202-2.608,1.579-3.426 c0.174-0.367,0.313-0.659,0.421-0.887C447.828,327.018,447.883,326.919,447.892,326.923z"/></g><g><path style="fill:#263238" d="M476.824,338.808c-0.761-0.142-1.051-2.01-0.648-4.172c0.403-2.163,1.347-3.8,2.108-3.658 c0.761,0.142,1.051,2.009,0.648,4.172C478.529,337.312,477.585,338.95,476.824,338.808z"/></g><g><path style="fill:#263238" d="M480.376,318.583c-0.349,0.208-0.966-0.235-1.914-0.457c-0.929-0.242-2.328-0.31-3.696,0.149 c-1.437,0.487-2.739,1.352-3.787,1.942c-1.045,0.598-1.831,0.891-2.1,0.606c-0.262-0.278,0.014-1.056,0.783-2.088 c0.767-1.003,2.102-2.382,4.209-3.117c2.189-0.736,4.377-0.191,5.55,0.773c0.591,0.477,0.934,1.005,1.052,1.415 C480.595,318.216,480.535,318.484,480.376,318.583z"/></g><g><path style="fill:#263238" d="M479.919,307.492c-0.023-0.01,0.317,0,0.484,0.463c0.074,0.22,0.082,0.522-0.044,0.839 c-0.108,0.322-0.445,0.637-0.872,0.74c-0.881,0.235-1.892-0.161-2.924-0.652c-1.04-0.519-2.136-1.303-3.083-2.409l-1.404-1.64 l1.716,1.313c0.699,0.535,1.657,1.178,1.842,2.371c0.076,0.549-0.054,1.229-0.586,1.64c-0.531,0.404-1.208,0.382-1.765,0.278 c-2.236-0.458-4.419-1.875-5.806-3.999c-0.265-0.391-0.475-0.812-0.664-1.207l-0.824-1.727l1.287,1.424 c1.015,1.124,1.759,2.428,2.217,3.769c0.11,0.33,0.235,0.686,0.224,1.097c-0.003,0.412-0.264,0.873-0.678,1.032 c-0.826,0.275-1.508-0.071-2.083-0.4c-2.173-1.399-3.715-3.186-4.724-4.817c-1.022-1.637-1.515-3.128-1.782-4.155 c-0.12-0.52-0.202-0.923-0.231-1.202c-0.036-0.277-0.046-0.423-0.027-0.426c0.128-0.05,0.311,2.39,2.364,5.576 c1.027,1.565,2.557,3.27,4.67,4.595c0.479,0.294,1.146,0.527,1.604,0.344c0.469-0.188,0.405-0.837,0.15-1.468 c-0.444-1.271-1.155-2.507-2.119-3.571l0.463-0.302c0.177,0.369,0.374,0.763,0.623,1.13c1.296,1.994,3.364,3.341,5.435,3.782 c0.504,0.102,1.017,0.092,1.351-0.166c0.338-0.246,0.46-0.727,0.404-1.165c-0.109-0.901-0.919-1.532-1.621-2.071l0.311-0.328 c0.884,1.07,1.917,1.846,2.903,2.375c0.986,0.511,1.944,0.9,2.691,0.727c0.778-0.146,0.947-0.932,0.85-1.29 C480.176,307.587,479.889,307.525,479.919,307.492z"/></g><g style="opacity:.3"><path d="M419.29,363.927c4.797,0.322,9.789,0.615,14.243-1.197c6.002-2.442,10.001-8.405,11.715-14.654 c1.714-6.249,1.652-11.872,1.407-18.348C440.545,345.113,433.931,357.102,419.29,363.927"/></g><g><g><path style="fill:#263238" d="M513.957,354.55c0.017,0.009-0.045,0.176-0.181,0.486c-0.134,0.311-0.343,0.764-0.626,1.341 c-0.591,1.129-1.355,2.876-2.97,4.583c-0.809,0.841-1.786,1.637-2.789,2.533c-1.002,0.877-2.088,1.941-3.629,2.448 c-0.756,0.249-1.684,0.252-2.459-0.152c-0.777-0.384-1.385-1.052-1.794-1.823c-0.808-1.601-0.661-3.452-0.471-5.173 c0.38-3.501,1.125-6.788,2.055-9.691c0.917-2.901,2.034-5.456,3.366-7.362c1.315-1.92,2.826-3.139,3.981-3.725 c0.573-0.304,1.048-0.482,1.377-0.568c0.328-0.092,0.501-0.13,0.507-0.112c0.02,0.059-0.681,0.229-1.777,0.87 c-1.095,0.631-2.516,1.854-3.759,3.756c-1.26,1.892-2.318,4.407-3.201,7.295c-0.893,2.882-1.615,6.135-1.99,9.597 c-0.196,1.712-0.307,3.456,0.401,4.859c0.357,0.682,0.894,1.272,1.546,1.596c0.647,0.339,1.388,0.348,2.07,0.137 c1.379-0.434,2.456-1.433,3.473-2.304c1.022-0.885,2.011-1.663,2.811-2.46c1.592-1.606,2.413-3.311,3.06-4.406 C513.58,355.156,513.918,354.531,513.957,354.55z"/></g><g><path style="fill:#263238" d="M511.697,346.027c0.768,0.102,1.355,0.446,1.312,0.768c-0.043,0.322-0.7,0.499-1.467,0.397 c-0.767-0.102-1.355-0.446-1.312-0.767C510.273,346.103,510.93,345.925,511.697,346.027z"/></g><g><path style="fill:#263238" d="M506.989,348.505c0.749-0.197,1.425-0.095,1.509,0.227c0.085,0.322-0.454,0.742-1.203,0.939 c-0.749,0.197-1.424,0.095-1.509-0.227C505.702,349.122,506.241,348.701,506.989,348.505z"/></g><g><path style="fill:#263238" d="M511.464,349.676c0.719-0.288,1.371-0.347,1.457-0.133c0.086,0.214-0.427,0.621-1.146,0.909 c-0.719,0.287-1.371,0.347-1.457,0.133C510.232,350.371,510.746,349.964,511.464,349.676z"/></g><g><path style="fill:#263238" d="M507.417,355.337c-0.605,0.484-1.377,0.524-1.724,0.089c-0.348-0.435-0.14-1.179,0.465-1.663 c0.604-0.484,1.376-0.523,1.724-0.088C508.23,354.109,508.021,354.854,507.417,355.337z"/></g><g style="opacity:.3"><path d="M517.649,338.566c-2.541-0.722-5.936-1.418-7.076-1.65c-1.105-0.224-2.029,0.827-2.847,1.331 c-2.282,1.406-3.777,3.788-4.95,6.198c-2.514,5.165-3.179,10.963-3.359,16.705c-0.056,1.784,0.696,3.684,2.424,4.129 c0.972,0.25,1.777,0.221,2.643-0.285c4.424-2.587,7.742-6.195,9.721-10.862C516.027,349.835,517.649,343.533,517.649,338.566"/></g><path style="fill:#263238" d="M515.098,337.963c-0.191-0.211-0.54-0.063-0.76,0.117c-1.07,0.875-1.611,2.224-2.11,3.513 c-0.164,0.423-0.33,0.857-0.344,1.31c-0.014,0.453,0.152,0.939,0.53,1.19c0.443,0.295,1.047,0.193,1.522-0.045 c0.476-0.239,0.884-0.597,1.364-0.827c0.172-0.082,0.412-0.132,0.523,0.022c0.106,0.146,0.004,0.347-0.09,0.502 c-0.398,0.656-0.636,1.409-0.687,2.175c-0.024,0.366-0.003,0.75,0.168,1.074c0.172,0.325,0.525,0.575,0.889,0.531 c0,0,2.711-7.634,0.95-8.8C515.293,337.559,515.098,337.963,515.098,337.963z"/></g><g style="opacity:.3"><path d="M459.145,298.569c2.117,5.004,5.145,9.62,8.893,13.555c1.287-2.758-0.232-5.946-1.72-8.602 c1.809,2.588,4.186,4.776,6.915,6.365c0.449,0.262,0.961,0.515,1.468,0.398c0.797-0.185,1.119-1.23,0.848-2.003 c-0.271-0.773-0.931-1.33-1.544-1.872c-0.613-0.542-1.238-1.164-1.389-1.969c1.495,1.59,3.255,2.929,5.186,3.946 c0.693,0.365,1.494,0.696,2.239,0.454c1.062-0.344,1.458-1.749,1.078-2.799c-0.381-1.05-1.299-1.8-2.209-2.447 c-5.39-3.835-11.98-5.958-18.595-5.989"/></g><g style="opacity:.4"><path style="fill:#fff" d="M416.242,347.938c-0.375,0.031-1.022-2.79-1.599-7.439c-0.528-4.634-1.078-11.197,0.109-18.424 c0.295-1.801,0.696-3.546,1.197-5.201c0.485-1.655,1.065-3.237,1.775-4.697c1.394-2.926,3.403-5.311,5.582-6.634 c2.15-1.348,4.256-1.693,5.636-1.609c1.4,0.076,2.087,0.488,2.049,0.65c-0.037,0.214-0.769,0.186-1.975,0.439 c-1.194,0.242-2.896,0.817-4.578,2.148c-1.683,1.297-3.233,3.405-4.366,6.083c-0.575,1.336-1.063,2.81-1.483,4.378 c-0.434,1.559-0.792,3.202-1.071,4.904c-1.125,6.816-0.919,13.209-0.896,17.831C416.688,345,416.638,347.904,416.242,347.938z"/></g></g><g><path style="fill:#263238" d="M144,250.135c-0.059-0.018,0.128-0.887,0.741-2.18c0.608-1.29,1.707-2.972,3.3-4.479 c1.599-1.502,3.343-2.501,4.666-3.032c1.326-0.537,2.205-0.672,2.219-0.612c0.079,0.17-3.403,1.085-6.501,4.052 C145.284,246.801,144.165,250.224,144,250.135z"/></g><g><path style="fill:#263238" d="M140.003,238.511c-0.059-0.027,0.102-0.566,0.607-1.313c0.5-0.745,1.39-1.662,2.597-2.341 c1.21-0.675,2.457-0.955,3.353-0.992c0.901-0.041,1.444,0.103,1.437,0.167c0.008,0.173-2.229,0.002-4.515,1.314 C141.169,236.611,140.146,238.608,140.003,238.511z"/></g><g><path style="fill:none;stroke:#fbfbfb;stroke-miterlimit:10" d="M131.856,232.269"/></g></g></g><g id="Food"><g><path style="fill:#263238" d="M575.756,376.932c1.116,0.448,2.255,0.9,3.454,0.99c1.199,0.09,2.492-0.239,3.29-1.138 c0.469-0.528,0.738-1.212,1.218-1.729c1.02-1.098,2.77-1.187,4.192-0.716c2.008,0.664,3.673,2.339,4.245,4.375 c0.571,2.037-0.005,4.375-1.518,5.853c-1.513,1.478-3.917,1.994-5.874,1.191c0,0,7.016,2.544,5.079,7.695 c-1.936,5.151-8.502,5.792-10.831,1.388c0,0-0.956-3.233-1.952-3.613c-0.996-0.38-4.447-1.883-4.447-1.883l-5.941-2.403 c-1.116-0.448-2.255-0.9-3.454-0.99c-1.199-0.09-2.492,0.239-3.29,1.138c-0.469,0.528-0.737,1.212-1.218,1.729 c-1.02,1.098-2.77,1.187-4.192,0.716c-2.008-0.664-3.673-2.339-4.245-4.375c-0.572-2.037,0.005-4.375,1.518-5.853 c1.513-1.478,3.917-1.994,5.874-1.191c0,0-7.016-2.544-5.079-7.695c1.936-5.151,8.502-5.792,10.831-1.388 c0,0,0.956,3.233,1.952,3.613c0.996,0.38,4.447,1.883,4.447,1.883L575.756,376.932z"/><path style="fill:#455a64" d="M574.314,375.49c1.116,0.448,2.255,0.9,3.454,0.99c1.2,0.09,2.492-0.239,3.29-1.138 c0.469-0.528,0.738-1.212,1.218-1.729c1.02-1.098,2.77-1.187,4.192-0.716c2.008,0.664,3.673,2.339,4.245,4.375 c0.571,2.037-0.006,4.375-1.519,5.853c-1.513,1.478-3.918,1.995-5.874,1.191c0,0,7.016,2.544,5.08,7.695 c-1.936,5.151-8.502,5.792-10.831,1.388c0,0-0.956-3.233-1.952-3.612c-0.996-0.38-4.447-1.883-4.447-1.883l-5.941-2.404 c-1.117-0.448-2.255-0.9-3.454-0.99c-1.199-0.09-2.492,0.239-3.29,1.138c-0.469,0.528-0.738,1.212-1.218,1.729 c-1.02,1.098-2.77,1.187-4.192,0.716c-2.008-0.664-3.673-2.339-4.245-4.375c-0.571-2.037,0.005-4.375,1.518-5.853 c1.513-1.478,3.917-1.995,5.874-1.191c0,0-7.016-2.544-5.079-7.695c1.936-5.151,8.502-5.792,10.831-1.388 c0,0,0.956,3.233,1.952,3.613c0.996,0.38,4.447,1.883,4.447,1.883L574.314,375.49z"/></g><g><path style="fill:#263238" d="M579.646,344.065c0.847-0.095,1.709-0.194,2.488-0.54c0.779-0.346,1.475-0.985,1.672-1.814 c0.116-0.487,0.054-1.004,0.18-1.488c0.269-1.027,1.331-1.669,2.376-1.853c1.476-0.259,3.077,0.228,4.117,1.307 s1.464,2.733,1.015,4.163c-0.448,1.43-1.776,2.559-3.267,2.714c0,0,5.232-0.765,5.751,3.099c0.519,3.865-3.364,6.466-6.294,4.499 c0,0-1.681-1.697-2.43-1.6c-0.749,0.097-3.407,0.316-3.407,0.316l-4.514,0.493c-0.847,0.095-1.709,0.194-2.488,0.54 c-0.779,0.346-1.475,0.985-1.672,1.814c-0.116,0.487-0.054,1.004-0.18,1.488c-0.269,1.027-1.331,1.669-2.376,1.853 c-1.476,0.259-3.077-0.228-4.117-1.307c-1.04-1.079-1.464-2.732-1.015-4.163c0.449-1.43,1.776-2.559,3.267-2.714 c0,0-5.232,0.765-5.751-3.099s3.364-6.466,6.294-4.499c0,0,1.681,1.697,2.43,1.6c0.749-0.097,3.407-0.316,3.407-0.316 L579.646,344.065z"/><path style="fill:#455a64" d="M578.263,343.649c0.847-0.095,1.709-0.194,2.488-0.54c0.779-0.346,1.475-0.985,1.672-1.814 c0.115-0.487,0.054-1.004,0.18-1.488c0.268-1.027,1.331-1.669,2.376-1.853c1.476-0.259,3.077,0.228,4.117,1.307 c1.04,1.079,1.464,2.732,1.015,4.163c-0.448,1.43-1.776,2.559-3.267,2.714c0,0,5.232-0.765,5.751,3.099 c0.519,3.865-3.364,6.466-6.294,4.499c0,0-1.681-1.697-2.43-1.6c-0.749,0.097-3.407,0.316-3.407,0.316l-4.514,0.493 c-0.847,0.095-1.709,0.194-2.488,0.54c-0.779,0.346-1.475,0.985-1.672,1.814c-0.115,0.487-0.054,1.004-0.18,1.488 c-0.269,1.027-1.331,1.669-2.377,1.853c-1.476,0.259-3.077-0.228-4.117-1.307c-1.04-1.079-1.464-2.732-1.015-4.162 c0.448-1.43,1.776-2.559,3.267-2.714c0,0-5.232,0.765-5.751-3.099c-0.519-3.865,3.364-6.466,6.294-4.499c0,0,1.681,1.697,2.43,1.6 c0.749-0.097,3.407-0.316,3.407-0.316L578.263,343.649z"/></g></g></svg>